<?xml version="1.0" standalone="no"?>
<!DOCTYPE svg PUBLIC "-//W3C//DTD SVG 20010904//EN"
 "http://www.w3.org/TR/2001/REC-SVG-20010904/DTD/svg10.dtd">
<svg version="1.0" xmlns="http://www.w3.org/2000/svg"
 width="270.000000pt" height="270.000000pt" viewBox="0 0 270.000000 270.000000"
 preserveAspectRatio="xMidYMid meet">
<metadata>
Created by potrace 1.10, written by Peter Selinger 2001-2011
</metadata>
<g transform="translate(0.000000,270.000000) scale(0.100000,-0.100000)"
fill="#000000" stroke="none">
<path d="M913 2433 c-10 -3 -13 -41 -13 -137 l0 -132 -58 -11 c-57 -11 -228
-71 -307 -109 l-40 -19 -3 -248 -2 -247 -68 0 c-48 0 -76 -5 -98 -19 -52 -32
-62 -67 -63 -228 -2 -121 1 -150 17 -186 22 -50 73 -80 125 -75 l32 3 1 -129
c2 -154 5 -158 98 -155 l58 3 33 -45 c127 -176 355 -351 627 -482 l97 -47 138
68 c254 127 422 255 559 426 l63 80 60 -3 c49 -2 63 1 81 19 19 19 21 31 19
138 l-1 117 78 0 79 0 0 255 0 255 -107 3 -108 3 0 248 0 248 -102 41 c-57 22
-147 54 -202 69 l-98 29 1 116 c2 122 -6 158 -37 158 -35 0 -42 -21 -42 -122
l0 -97 -27 26 c-43 39 -118 73 -193 87 -158 30 -280 -6 -433 -127 -19 -15 -51
-31 -71 -34 l-36 -6 0 131 c0 109 -3 131 -16 136 -18 7 -23 7 -41 -1z m619
-149 c38 -11 66 -26 79 -43 l21 -26 -28 -3 c-22 -3 -34 4 -60 35 -29 34 -33
35 -34 16 0 -12 9 -28 21 -36 19 -14 19 -15 -15 -19 -25 -3 -36 0 -36 9 0 19
-38 35 -63 27 -12 -5 -28 -7 -35 -5 -8 1 -24 -5 -37 -13 -14 -9 -31 -16 -39
-16 -27 0 -144 -73 -153 -96 -3 -8 -1 -20 6 -27 17 -17 14 -22 -29 -51 -39
-25 -40 -26 -40 -6 0 12 -11 31 -25 44 -14 13 -25 27 -25 30 0 11 80 84 130
119 104 73 239 95 362 61z m182 -84 c8 0 19 7 26 15 19 23 30 18 30 -15 0 -39
46 -86 91 -93 60 -8 143 -35 147 -46 2 -6 8 -9 13 -5 11 6 69 -17 69 -28 0 -4
6 -5 13 -2 17 6 67 -33 67 -52 0 -20 -8 -18 -47 16 -18 17 -43 30 -54 30 -11
0 -17 5 -14 10 3 6 -1 10 -10 10 -9 0 -53 12 -98 26 -84 28 -132 33 -150 15
-16 -16 -11 -63 9 -75 24 -14 114 -44 134 -45 20 -1 93 -40 102 -55 4 -6 8
-55 8 -109 l0 -99 -33 20 c-31 18 -36 18 -62 5 -25 -13 -32 -13 -59 -1 -23 11
-37 13 -54 5 -16 -8 -33 -7 -56 1 -53 19 -80 14 -122 -22 l-39 -34 -31 30
c-39 37 -61 41 -96 17 -32 -23 -33 -23 -52 -4 -21 21 -135 28 -171 9 -24 -12
-29 -12 -51 5 l-23 18 56 6 c31 3 61 11 67 18 8 9 8 10 -1 5 -7 -4 -40 -9 -74
-13 -56 -5 -61 -4 -56 12 4 9 7 23 7 30 0 7 8 16 18 18 11 3 9 5 -8 6 -20 1
-26 7 -28 26 -2 31 -35 97 -56 114 -23 19 -20 27 20 55 l37 25 17 -22 18 -21
38 19 c22 11 45 24 53 29 7 6 18 11 25 13 28 6 88 31 98 41 7 7 19 12 28 12
21 0 40 20 40 41 0 17 19 29 48 29 12 0 18 -10 19 -31 1 -17 12 -47 23 -67
l21 -35 -23 -24 c-17 -18 -18 -23 -5 -17 9 3 25 0 34 -7 15 -13 16 -9 10 38
-3 29 -15 73 -26 98 l-20 45 33 0 c32 0 34 -3 49 -55 14 -50 14 -59 0 -93 -8
-20 -22 -46 -31 -57 -17 -19 -16 -19 8 -4 39 25 62 74 67 142 l5 62 -35 13
c-19 7 -38 20 -41 28 -5 13 1 12 29 -5 20 -12 42 -21 49 -21z m-246 -10 c15
-23 19 -37 12 -44 -7 -7 -14 -4 -23 9 -16 21 -37 12 -37 -16 0 -23 -16 -25
-28 -4 -14 25 -43 8 -36 -21 7 -28 -2 -31 -27 -8 -21 19 -42 9 -34 -16 8 -24
-11 -35 -23 -14 -12 22 -37 13 -37 -14 0 -34 -18 -29 -40 11 -20 37 -16 58 8
39 19 -16 40 1 32 27 -7 24 7 28 25 7 18 -22 41 -8 34 20 -7 28 2 31 26 9 24
-22 53 -9 39 16 -7 15 -6 19 5 19 8 0 18 -4 21 -10 3 -5 15 -10 26 -10 16 0
19 4 14 21 -10 32 15 19 43 -21z m-498 -37 c14 -6 34 -14 45 -18 17 -6 18 -8
5 -18 -35 -28 -52 -59 -67 -119 -16 -70 -24 -140 -14 -134 4 3 8 19 9 38 3 44
21 98 33 98 5 0 9 -6 9 -14 0 -7 7 -19 15 -26 13 -11 10 -19 -21 -62 -20 -27
-34 -52 -30 -55 4 -4 13 2 20 13 8 10 22 29 33 41 l19 21 16 -44 c8 -24 11
-44 6 -44 -5 0 4 -12 19 -26 l28 -25 -30 5 -30 6 28 -15 c15 -9 27 -19 27 -24
0 -8 18 -11 62 -11 20 0 26 -4 22 -14 -9 -23 -30 -26 -50 -8 -31 29 -74 14
-101 -33 -12 -22 -23 -35 -23 -28 0 21 -49 71 -75 75 -16 4 -35 -2 -51 -14
-24 -19 -26 -19 -44 -3 -25 23 -126 22 -150 0 -9 -8 -20 -12 -23 -8 -11 10 -8
182 3 203 6 11 46 30 107 50 121 39 141 49 148 71 11 34 -12 59 -54 59 -36 0
-124 -21 -166 -40 -11 -5 -37 -14 -57 -21 -63 -21 -97 -64 -89 -111 0 -5 -3
-8 -8 -8 -6 0 -9 18 -9 40 0 44 28 75 77 87 14 3 32 10 39 16 6 5 12 6 12 2 0
-4 6 -3 13 2 13 10 134 49 179 58 15 3 40 16 55 30 15 13 30 23 33 22 3 -2 16
-8 30 -14z m-70 -97 c0 -21 -8 -27 -57 -41 -51 -14 -154 -50 -205 -70 -16 -6
-18 -26 -18 -211 0 -196 -1 -204 -20 -204 -18 0 -19 9 -22 217 l-3 217 61 27
c46 21 214 77 262 88 1 1 2 -10 2 -23z m154 -13 l26 -37 -22 -23 c-12 -13 -24
-23 -27 -23 -4 0 -15 15 -25 34 -17 32 -17 35 -1 60 10 14 19 26 21 26 2 0 15
-17 28 -37z m841 7 c39 -13 105 -36 148 -52 l77 -29 0 -220 0 -219 -22 0 -23
0 3 204 3 204 -76 27 c-42 16 -104 36 -138 45 -54 15 -62 20 -65 43 -2 19 1
26 10 23 7 -3 45 -14 83 -26z m-770 -132 c33 -75 59 -148 54 -153 -2 -2 -20 0
-38 4 -25 5 -37 13 -42 31 -3 14 -18 50 -32 81 l-25 57 21 21 c12 11 24 21 28
21 3 0 18 -28 34 -62z m-588 -230 c-1 -40 -3 -8 -3 72 0 80 2 112 3 73 2 -40
2 -106 0 -145z m1654 -166 c10 -14 30 -25 49 -27 43 -6 47 -11 25 -35 -18 -19
-18 -19 -47 5 -38 32 -107 35 -126 5 -14 -24 -35 -26 -51 -6 -7 8 -26 18 -43
21 -25 6 -29 11 -23 28 3 12 10 36 14 52 9 36 29 74 48 93 14 14 16 1 15 -88
-1 -43 13 -60 48 -60 28 0 55 21 43 33 -3 4 -2 7 4 7 6 0 9 35 8 92 -3 137 9
151 15 18 4 -84 9 -121 21 -138z m-1371 158 c0 -17 -7 -20 -46 -20 -38 0 -45
-3 -42 -17 2 -13 14 -19 41 -21 30 -3 37 -7 35 -20 -2 -12 -13 -17 -38 -17
-33 0 -35 -1 -32 -32 3 -30 1 -33 -22 -33 l-26 0 0 90 0 90 65 0 c58 0 65 -2
65 -20z m155 -62 c17 -45 32 -86 33 -90 2 -4 -8 -8 -22 -8 -16 0 -26 6 -26 15
0 11 -11 15 -39 15 -25 0 -41 -5 -45 -15 -7 -18 -50 -21 -44 -2 61 170 60 167
87 167 24 0 29 -8 56 -82z m164 27 c23 -30 43 -55 45 -55 1 0 1 25 -2 55 -4
54 -4 55 22 55 l26 0 0 -90 c0 -88 0 -90 -24 -90 -17 0 -35 15 -65 55 -23 30
-43 55 -44 55 -1 0 0 -25 1 -55 4 -52 3 -55 -20 -55 -22 0 -23 2 -23 90 0 85
1 90 21 90 14 0 36 -19 63 -55z m291 35 c0 -15 -7 -20 -27 -20 l-28 0 3 -70
c4 -69 3 -70 -22 -70 -25 0 -26 1 -26 70 l0 70 -30 0 c-23 0 -30 4 -30 20 0
18 7 20 80 20 73 0 80 -2 80 -20z m165 -62 c17 -45 32 -86 33 -90 2 -4 -7 -8
-21 -8 -14 0 -27 7 -31 15 -3 9 -18 15 -40 15 -21 0 -36 -6 -40 -15 -5 -15
-46 -22 -46 -8 0 4 12 39 26 78 14 38 27 76 30 83 2 6 16 12 31 12 26 0 31 -6
58 -82z m200 57 c0 -15 -5 -19 -20 -16 -39 8 -58 6 -62 -6 -3 -7 4 -16 14 -19
77 -24 94 -43 77 -88 -10 -25 -68 -39 -109 -26 -37 12 -40 17 -26 39 6 10 13
11 29 2 11 -6 30 -11 42 -11 34 0 20 32 -17 42 -37 10 -64 43 -56 67 13 35 26
42 77 39 43 -3 51 -6 51 -23z m114 -12 l19 -38 16 38 c13 29 22 37 41 37 14 0
25 -2 25 -5 0 -3 -13 -27 -30 -53 -19 -31 -30 -63 -30 -86 0 -32 -3 -36 -25
-36 -22 0 -25 4 -25 36 0 23 -11 55 -30 86 -16 26 -30 50 -30 53 0 3 11 5 25
5 18 0 29 -10 44 -37z m-614 -95 c-5 -23 10 -56 35 -78 9 -8 15 -21 13 -27 -5
-15 -43 -18 -43 -3 0 5 -12 13 -26 16 -22 6 -25 11 -19 33 6 26 11 58 14 96 2
19 2 19 16 2 7 -11 12 -28 10 -39z m571 -25 c20 -26 17 -53 -5 -53 -10 0 -35
-14 -56 -30 -35 -28 -39 -29 -51 -13 -19 25 -17 33 6 33 22 0 80 50 80 69 0
16 11 14 26 -6z m-1303 -13 c6 -22 45 -27 77 -10 13 7 19 6 24 -6 4 -9 -2 -18
-17 -23 -13 -5 -29 -16 -36 -25 -18 -21 -33 -20 -59 4 -12 11 -28 20 -37 20
-19 0 -19 6 3 35 21 30 38 32 45 5z m248 -20 c23 -18 23 -19 4 -21 -47 -3 -60
3 -52 26 8 20 20 19 48 -5z m112 -8 c3 -4 -6 -21 -21 -37 -16 -19 -27 -25 -30
-17 -2 6 -8 10 -13 6 -22 -13 -2 22 21 38 28 20 37 22 43 10z m127 -17 c0 -19
-20 -29 -31 -18 -14 14 0 43 17 36 8 -3 14 -11 14 -18z m-210 -62 c15 -20 20
-41 20 -89 0 -55 -3 -67 -24 -85 l-23 -20 28 -57 c16 -30 29 -57 29 -59 0 -2
-19 -3 -41 -1 -41 3 -42 4 -62 61 -17 47 -25 57 -44 57 -22 0 -23 -4 -23 -65
l0 -64 -36 2 -35 2 0 170 c0 94 0 172 0 175 1 3 44 4 96 2 88 -3 96 -5 115
-29z m601 -139 l0 -169 -35 -3 -36 -3 0 173 0 173 36 -1 35 -1 0 -169z m282
149 c13 -13 17 -33 17 -94 0 -67 -3 -80 -20 -92 l-21 -14 26 -58 c14 -32 25
-59 25 -61 0 -2 -17 -4 -38 -4 -36 0 -38 1 -60 60 -20 50 -28 60 -48 60 -23 0
-24 -3 -24 -60 l0 -60 -35 0 -35 0 0 173 0 172 97 -3 c72 -3 103 -8 116 -19z
m517 -94 c25 -60 47 -109 50 -109 3 0 4 51 2 112 l-3 113 38 -1 c21 -1 37 -4
36 -8 -2 -3 -3 -85 -3 -182 l0 -175 -42 3 -43 3 -45 107 c-25 59 -47 109 -50
112 -3 2 -4 -45 -2 -105 l4 -109 -35 0 -36 0 -3 176 c-2 97 -2 177 -1 177 1 1
21 1 45 -1 l43 -4 45 -109z m-1692 98 c6 -7 14 -32 18 -55 l7 -42 -42 0 c-37
0 -41 2 -41 26 0 23 -3 25 -42 22 l-43 -3 0 -110 0 -110 42 -3 c38 -3 43 -1
49 22 9 37 -1 55 -25 49 -18 -5 -21 -1 -21 26 l0 31 61 0 61 0 -4 -76 c-5
-100 -20 -114 -122 -114 -39 0 -76 4 -82 8 -27 17 -34 56 -34 176 0 162 3 166
124 166 56 0 87 -4 94 -13z m452 -157 l0 -170 -40 0 -40 0 0 170 0 170 40 0
40 0 0 -170z m281 151 c23 -18 24 -25 24 -145 0 -162 0 -162 -142 -168 l-103
-5 0 169 0 168 99 0 c82 0 103 -3 122 -19z m735 11 c26 -17 34 -56 34 -171 0
-155 -4 -161 -120 -161 -73 0 -83 3 -105 25 -24 23 -25 30 -25 146 0 112 2
125 22 146 19 20 31 23 102 23 45 0 86 -4 92 -8z m-681 -321 c-3 -6 4 -15 16
-21 27 -15 17 -24 -27 -25 -26 -1 -34 3 -34 16 0 10 8 23 18 28 22 13 35 14
27 2z m307 -18 l16 -28 -33 -2 c-19 -2 -37 2 -40 7 -3 6 1 10 9 10 9 0 16 9
16 20 0 28 13 25 32 -7z m-876 -20 c-3 -7 1 -10 12 -7 9 3 6 -1 -8 -10 -22
-13 -27 -13 -45 2 -19 16 -19 16 -6 0 11 -15 11 -18 -2 -18 -18 0 -17 16 3 46
11 18 17 20 32 11 10 -7 16 -17 14 -24z m1046 15 c22 -26 11 -41 -28 -36 -31
3 -49 38 -20 38 9 0 16 5 16 10 0 16 11 12 32 -12z m-1211 -40 c-76 -15 -85
-18 -93 -30 -4 -7 -8 -19 -8 -26 0 -7 -4 -11 -9 -7 -5 3 -11 0 -14 -7 -2 -7
-3 -5 -2 4 2 9 -6 26 -17 38 -11 12 -18 23 -17 25 11 9 90 11 100 1 9 -8 10
-8 4 3 -5 9 0 20 16 31 22 18 24 17 49 -3 l27 -22 -36 -7z m448 34 c8 -15 5
-17 -17 -16 -39 3 -39 3 -18 19 25 19 23 19 35 -3z m1037 1 c7 -10 14 -21 14
-24 0 -10 -58 -19 -76 -12 -15 6 -15 7 2 20 10 7 14 13 8 14 -5 0 0 4 11 9 28
12 26 12 41 -7z m165 -5 c22 -28 23 -33 4 -51 -22 -22 -32 -83 -28 -169 3 -69
1 -77 -17 -83 -32 -10 -44 4 -23 27 14 16 18 37 19 97 0 76 -5 100 -28 133
-10 14 -8 21 12 43 29 31 37 31 61 3z m-757 -1 c-5 -15 -34 -19 -34 -5 0 5 -5
6 -12 2 -7 -4 -8 -3 -4 4 10 17 57 15 50 -1z m506 -57 c85 -5 161 -10 168 -10
9 0 12 -27 12 -101 l0 -101 -82 6 c-410 33 -1120 33 -1500 0 l-78 -7 0 102 c0
55 1 101 3 101 164 26 1114 33 1477 10z m-1518 -172 c-1 -29 2 -38 8 -28 6 9
10 10 10 3 0 -6 7 -19 16 -27 14 -15 14 -17 -2 -23 -26 -10 -44 24 -44 81 0
27 3 47 6 43 4 -3 6 -25 6 -49z m665 -48 c-7 -8 -29 -35 -50 -60 -46 -52 -57
-79 -62 -138 -1 -24 -7 -48 -13 -54 -14 -14 -66 26 -175 134 -49 49 -94 88
-100 88 -7 0 -5 6 3 14 11 11 50 16 134 20 65 3 120 7 122 8 1 2 36 3 77 3 65
0 74 -2 64 -15z m563 6 c41 -3 112 -6 158 -7 45 -1 85 -5 87 -9 5 -8 -143
-156 -192 -194 -16 -12 -47 -40 -70 -63 -35 -35 -43 -40 -53 -27 -7 8 -19 14
-26 14 -8 0 -14 5 -14 11 0 8 -4 8 -14 0 -22 -18 -120 -10 -124 10 -3 18 37
39 73 39 41 0 63 67 26 77 -11 3 -18 10 -15 16 2 7 -19 39 -48 72 l-51 60 49
5 c53 5 97 5 214 -4z m-313 -22 c42 -15 127 -97 121 -116 -2 -5 -26 -17 -55
-27 -75 -25 -98 -44 -128 -105 -24 -50 -29 -54 -42 -40 -20 19 -42 15 -60 -12
-12 -19 -12 -24 3 -39 11 -10 25 -14 39 -11 15 4 25 1 28 -9 3 -7 24 -19 46
-26 23 -7 41 -16 41 -20 0 -5 -14 -16 -31 -24 -35 -19 -76 -13 -127 16 -18 10
-51 19 -72 19 -37 0 -39 2 -69 62 -51 101 -39 202 32 276 74 78 163 95 274 56z
m-688 2 c10 -12 8 -17 -7 -25 -12 -6 -19 -21 -20 -43 -1 -23 2 -28 8 -18 8 12
10 11 10 -5 0 -11 9 -26 20 -33 11 -7 20 -19 20 -27 0 -8 3 -15 8 -15 4 0 30
-22 58 -48 54 -49 66 -60 126 -104 39 -30 93 -44 103 -28 8 13 25 13 25 0 0
-24 53 -68 88 -74 20 -3 50 -12 65 -21 51 -26 94 -34 136 -23 22 6 39 15 38
21 -4 22 34 17 68 -8 22 -17 42 -25 55 -22 11 3 20 1 20 -4 0 -5 -5 -9 -11 -9
-5 0 -8 -4 -4 -10 5 -7 -94 -62 -117 -64 -3 -1 -10 -4 -14 -8 -23 -24 -100 4
-257 96 -104 59 -123 72 -227 150 -105 78 -304 293 -292 313 4 6 23 13 42 16
19 2 38 5 41 5 4 1 12 -4 18 -12z m1380 2 c18 -11 16 -16 -32 -72 -85 -100
-212 -222 -284 -272 -37 -26 -73 -54 -80 -61 -6 -8 -22 -13 -35 -11 -32 4 -38
59 -9 90 l21 22 0 -22 c0 -11 4 -23 8 -26 13 -8 82 13 82 24 0 6 5 10 10 10
13 0 56 37 153 130 87 84 113 136 83 165 -24 24 -20 28 23 23 22 -2 37 0 35 4
-7 11 3 10 25 -4z m-1269 -122 c45 -47 106 -101 136 -122 38 -26 57 -47 63
-68 4 -17 7 -33 5 -35 -2 -2 -43 28 -91 67 -79 63 -152 134 -223 215 l-23 27
26 0 c20 0 46 -20 107 -84z m1172 57 c-30 -42 -179 -183 -249 -237 l-63 -47 7
33 c3 18 6 33 7 33 39 15 256 216 256 237 0 4 14 8 31 8 l30 0 -19 -27z m-429
-97 c-1 -5 -30 -18 -65 -29 -81 -24 -89 -33 -72 -74 12 -28 18 -32 41 -28 16
2 58 7 96 10 56 5 67 3 67 -10 0 -8 -5 -15 -11 -15 -8 0 -10 -23 -7 -75 l5
-75 -57 0 c-61 0 -103 22 -115 60 -5 14 -15 20 -38 20 -36 0 -78 19 -84 36 -3
9 7 8 34 -2 39 -13 73 -18 73 -9 0 2 -11 34 -24 69 -29 75 -29 75 61 112 57
24 100 28 96 10z m-173 -155 c0 -8 -6 -11 -16 -7 -9 3 -20 6 -25 6 -13 0 -11
27 3 53 11 22 12 22 24 -8 7 -16 13 -36 14 -44z"/>
<path d="M1565 1910 c-27 -27 -47 -51 -44 -53 2 -2 27 21 55 50 28 29 48 53
44 53 -3 0 -28 -22 -55 -50z"/>
<path d="M1470 1835 c-19 -14 -56 -32 -83 -41 -26 -9 -47 -18 -45 -20 10 -9
108 32 139 57 42 35 36 37 -11 4z"/>
<path d="M906 1628 c-9 -35 -8 -38 15 -38 16 0 19 4 14 23 -11 35 -22 41 -29
15z"/>
<path d="M1523 1620 c-11 -28 -10 -30 12 -30 22 0 23 2 14 30 -6 17 -12 30
-13 30 -1 0 -7 -13 -13 -30z"/>
<path d="M700 1340 l0 -51 43 3 42 3 0 45 0 45 -42 3 -43 3 0 -51z"/>
<path d="M1580 1340 l0 -51 43 3 42 3 0 45 0 45 -42 3 -43 3 0 -51z"/>
<path d="M1130 1287 c0 -57 2 -106 4 -108 3 -2 25 -3 51 -1 l46 4 -3 102 -3
101 -47 3 -48 3 0 -104z"/>
<path d="M1874 1377 c-2 -7 -3 -56 -2 -108 l3 -94 50 0 50 0 0 105 0 105 -48
3 c-33 2 -49 -1 -53 -11z m56 -67 c4 -27 0 -93 -5 -89 -2 3 -6 31 -8 62 -2 32
0 54 4 50 4 -4 8 -15 9 -23z"/>
<path d="M1090 981 c-9 -18 -6 -24 22 -41 l33 -20 -27 0 c-16 0 -28 -4 -28
-10 0 -16 67 -12 74 5 6 17 -19 45 -40 45 -8 0 -14 5 -14 11 0 7 10 9 26 5 19
-5 25 -3 22 6 -8 23 -55 22 -68 -1z"/>
<path d="M1180 985 c0 -11 5 -15 15 -11 12 4 15 -3 15 -34 0 -30 4 -40 16 -40
12 0 15 9 13 38 -3 31 -1 37 15 34 11 -2 17 2 14 10 -3 7 -23 14 -46 16 -34 3
-42 0 -42 -13z"/>
<path d="M1290 993 c0 -5 7 -17 15 -27 8 -11 15 -30 15 -43 0 -14 6 -23 15
-23 9 0 15 9 15 23 0 12 7 33 16 45 21 31 7 43 -16 14 -18 -22 -19 -22 -25 -2
-6 19 -35 29 -35 13z"/>
<path d="M1453 950 c2 -49 2 -50 34 -50 18 0 33 5 33 10 0 6 -9 10 -20 10 -17
0 -20 7 -20 40 0 28 -4 40 -14 40 -11 0 -14 -13 -13 -50z"/>
<path d="M1550 949 c0 -46 1 -47 35 -51 24 -3 35 0 35 9 0 7 -11 13 -25 13
-14 0 -25 4 -25 9 0 5 9 7 20 4 14 -4 20 0 20 10 0 10 -6 13 -20 10 -11 -3
-20 0 -20 6 0 6 11 11 25 11 14 0 25 6 25 13 0 7 -14 12 -35 12 -35 0 -35 0
-35 -46z"/>
<path d="M730 984 c0 -3 9 -18 19 -33 10 -14 21 -37 23 -51 4 -23 5 -23 12 -5
4 11 15 37 26 58 16 31 16 37 3 37 -8 0 -17 -9 -20 -20 -5 -20 -23 -28 -23
-10 0 5 -9 14 -20 20 -11 6 -20 8 -20 4z"/>
<path d="M850 940 c0 -55 17 -69 22 -17 l3 32 20 -32 c29 -49 45 -42 45 17 0
35 -4 50 -13 50 -9 0 -12 -10 -9 -32 l4 -33 -27 33 c-15 17 -31 32 -36 32 -5
0 -9 -22 -9 -50z"/>
<path d="M982 940 c-17 -41 -18 -50 -6 -50 7 0 14 5 14 11 0 8 13 9 39 5 l38
-6 -20 45 c-12 25 -26 45 -33 45 -6 0 -21 -22 -32 -50z"/>
<path d="M1658 943 c-9 -26 -15 -49 -14 -51 2 -2 13 3 25 10 17 11 25 11 42 0
12 -7 23 -12 25 -10 9 9 -32 98 -46 98 -9 0 -22 -19 -32 -47z"/>
<path d="M1771 981 c-17 -11 -18 -56 -1 -76 16 -19 54 -19 70 0 16 20 6 44
-17 40 -10 -2 -20 -4 -23 -4 -3 -1 2 -5 10 -11 18 -11 6 -25 -15 -16 -10 3
-15 15 -13 28 2 19 8 22 32 20 19 -2 27 1 24 10 -5 16 -48 22 -67 9z"/>
<path d="M1873 976 c4 -10 7 -33 7 -52 0 -28 4 -35 25 -40 36 -9 55 11 55 57
0 50 -18 51 -22 2 -4 -53 -31 -52 -38 1 -3 22 -11 42 -19 44 -10 3 -12 0 -8
-12z"/>
<path d="M630 930 c0 -47 2 -50 26 -50 41 0 64 18 64 48 0 37 -17 52 -57 52
-33 0 -33 0 -33 -50z m64 14 c6 -16 -9 -44 -24 -44 -4 0 -10 14 -12 30 -4 23
-1 30 13 30 9 0 20 -7 23 -16z"/>
<path d="M1990 930 l0 -50 35 0 c19 0 35 5 35 10 0 6 -11 10 -25 10 -14 0 -25
5 -25 10 0 6 12 10 26 10 14 0 23 4 19 10 -3 6 -15 10 -26 10 -10 0 -19 5 -19
11 0 7 10 9 25 7 17 -4 25 -1 25 8 0 9 -12 14 -35 14 l-35 0 0 -50z"/>
<path d="M1497 482 c-46 -3 -47 -4 -41 -30 11 -51 38 -77 82 -80 l42 -3 0 60
c0 51 -3 59 -17 58 -10 -1 -39 -3 -66 -5z m48 -42 c3 -6 3 -20 0 -31 l-7 -21
-24 23 c-13 12 -21 26 -18 30 7 12 41 11 49 -1z"/>
</g>
</svg>
